HIERARCHY
ROOT Hips
{
	OFFSET -3.958830 18.904000 13.208200
	CHANNELS 6 Xposition Yposition Zposition Zrotation Yrotation Xrotation 
	JOINT LHipJoint
	{
		OFFSET 0.000000 0.000000 0.000000
		CHANNELS 3 Zrotation Yrotation Xrotation
		JOINT LeftUpLeg
		{
			OFFSET 1.800000 -1.400000 0.085000
			CHANNELS 3 Zrotation Yrotation Xrotation
			JOINT LeftLeg
			{
				OFFSET 2.215000 -6.000000 0.000000
				CHANNELS 3 Zrotation Yrotation Xrotation
				JOINT LeftFoot
				{
					OFFSET 2.500000 -6.900000 0.000000
					CHANNELS 3 Zrotation Yrotation Xrotation
					JOINT LeftToeBase
					{
						OFFSET 0.200000 -0.500000 1.950000
						CHANNELS 3 Zrotation Yrotation Xrotation
						End Site
						{
							OFFSET 0.000000 0.000000 0.000000
						}
					}
				}
			}
		}
	}
	JOINT RHipJoint
	{
		OFFSET 0.000000 0.000000 0.000000
		CHANNELS 3 Zrotation Yrotation Xrotation
		JOINT RightUpLeg
		{
			OFFSET -1.800000 -1.400000 0.085000
			CHANNELS 3 Zrotation Yrotation Xrotation
			JOINT RightLeg
			{
				OFFSET -2.215000 -6.000000 0.000000
				CHANNELS 3 Zrotation Yrotation Xrotation
				JOINT RightFoot
				{
					OFFSET -2.500000 -6.900000 0.000000
					CHANNELS 3 Zrotation Yrotation Xrotation
					JOINT RightToeBase
					{
						OFFSET -0.200000 -0.500000 1.950000
						CHANNELS 3 Zrotation Yrotation Xrotation
						End Site
						{
							OFFSET 0.000000 0.000000 0.000000
						}
					}
				}
			}
		}
	}
	JOINT LowerBack
	{
		OFFSET 0.000000 0.000000 0.000000
		CHANNELS 3 Zrotation Yrotation Xrotation
		JOINT Spine
		{
			OFFSET -0.087000 1.940000 -0.288900
			CHANNELS 3 Zrotation Yrotation Xrotation
			JOINT Spine1
			{
				OFFSET 0.000000 1.950000 0.060000
				CHANNELS 3 Zrotation Yrotation Xrotation
				JOINT Neck
				{
					OFFSET 0.000000 0.000000 0.000000
					CHANNELS 3 Zrotation Yrotation Xrotation
					JOINT Neck1
					{
						OFFSET 0.000000 1.600000 0.340000
						CHANNELS 3 Zrotation Yrotation Xrotation
						JOINT Head
						{
							OFFSET 0.000000 1.667000 -0.240000
							CHANNELS 3 Zrotation Yrotation Xrotation
							End Site
							{
								OFFSET 0.000000 0.000000 0.000000
							}
						}
					}
				}
				JOINT LeftShoulder
				{
					OFFSET 0.000000 0.000000 0.000000
					CHANNELS 3 Zrotation Yrotation Xrotation
					JOINT LeftArm
					{
						OFFSET 2.700000 1.550000 -0.730000
						CHANNELS 3 Zrotation Yrotation Xrotation
						JOINT LeftForeArm
						{
							OFFSET 5.450000 0.000000 0.000000
							CHANNELS 3 Zrotation Yrotation Xrotation
							JOINT LeftHand
							{
								OFFSET 3.450000 0.000000 0.000000
								CHANNELS 3 Zrotation Yrotation Xrotation
								JOINT LeftHandIndex1
								{
									OFFSET 0.750000 0.000000 0.000000
									CHANNELS 3 Zrotation Yrotation Xrotation
									End Site
									{
										OFFSET 0.000000 0.000000 0.000000
									}
								}
							}
						}
					}
				}
				JOINT RightShoulder
				{
					OFFSET 0.000000 0.000000 0.000000
					CHANNELS 3 Zrotation Yrotation Xrotation
					JOINT RightArm
					{
						OFFSET -2.700000 1.550000 -0.730000
						CHANNELS 3 Zrotation Yrotation Xrotation
						JOINT RightForeArm
						{
							OFFSET -5.450000 0.000000 0.000000
							CHANNELS 3 Zrotation Yrotation Xrotation
							JOINT RightHand
							{
								OFFSET -3.450000 0.000000 0.000000
								CHANNELS 3 Zrotation Yrotation Xrotation
								JOINT RightHandIndex1
								{
									OFFSET -0.750000 0.000000 0.000000
									CHANNELS 3 Zrotation Yrotation Xrotation
									End Site
									{
										OFFSET 0.000000 0.000000 0.000000
									}
								}
							}
						}
					}
				}
			}
		}
	}
}
MOTION
Frames: 8
Frame Time: 0.016667
-0.633990 16.246570 -1.191710 -4.454298 -26.806377 8.512291 -14.443235 12.426474 2.253431 8.705975 -1.706918 -14.817758 0.095157 3.765411 13.365334 -0.533378 3.291153 3.656673 0.125590 -0.035860 -0.057300 18.828619 -12.173029 3.537492 -4.445141 3.368137 -24.567157 7.240278 -3.590029 8.501520 0.340473 -2.948460 3.542894 0.186640 0.622280 0.186060 -5.058461 3.199305 -6.862058 15.277226 -0.506588 5.095594 -4.934276 -0.275725 -2.144229 5.068366 2.871975 -4.889018 7.257526 -4.961177 20.608969 -6.986930 -3.381850 3.782050 -6.840741 16.977693 -3.300934 -48.802261 6.530175 -6.034285 65.689558 -50.736385 -22.385224 -4.261561 2.914046 -0.140670 0.566870 -0.444720 0.286900 -4.744944 -14.034032 5.003564 49.465359 17.361555 3.701263 -98.441255 42.449420 -52.829619 1.931851 -1.831529 -0.255320 0.143650 -0.015200 0.023540 
-0.629770 16.245740 -1.193640 -4.413810 -26.696273 8.427717 -14.447452 12.422647 2.253932 8.735597 -1.711145 -14.775409 0.010623 3.778611 13.313887 -0.537249 3.311463 3.655999 0.129540 -0.031040 -0.067490 18.825533 -12.168873 3.532557 -4.511288 3.324768 -24.401831 7.223624 -3.553051 8.271316 0.346867 -2.969119 3.538726 0.198310 0.641300 0.188430 -5.052502 3.192115 -6.860813 15.361909 -0.547167 4.997393 -5.299750 -0.246445 -1.905706 5.384459 2.721585 -4.912618 7.037913 -5.002401 20.491220 -6.899180 -3.696910 4.041430 -7.026512 16.833528 -3.324676 -48.436976 6.368531 -5.889475 66.333180 -50.734860 -22.815677 -4.274871 2.920293 -0.157660 0.580490 -0.461850 0.294810 -5.161301 -13.740368 5.104559 46.944531 17.529916 3.701541 -97.189226 42.431653 -51.315250 1.929740 -1.854929 -0.257190 0.148350 -0.012160 0.030800 
-0.623820 16.245900 -1.195090 -4.413750 -26.613922 8.361701 -14.455262 12.435272 2.258799 8.788893 -1.707929 -14.724163 -0.071753 3.791541 13.222622 -0.536029 3.328848 3.655258 0.127880 -0.031710 -0.081870 18.817680 -12.150248 3.527813 -4.541920 3.286878 -24.203511 7.194295 -3.509009 8.008009 0.353184 -2.980354 3.538887 0.203140 0.658060 0.188860 -5.033075 3.130166 -6.872624 15.498823 -0.618170 4.977982 -5.687199 -0.207432 -1.751064 5.691844 2.534132 -4.965853 6.728906 -5.073231 20.488071 -6.752780 -4.065860 4.293850 -7.147168 16.720248 -3.334421 -48.123066 6.304370 -5.776617 67.006089 -50.758182 -23.275342 -4.280194 2.921548 -0.171530 0.589550 -0.476900 0.300260 -5.648510 -13.455457 5.217975 44.146437 17.294846 3.479136 -95.463821 43.159108 -49.912761 1.924490 -1.844691 -0.257930 0.152230 -0.006600 0.039140 
-0.616650 16.245380 -1.196510 -4.368276 -26.510101 8.310295 -14.471021 12.457867 2.268051 8.787567 -1.712105 -14.729143 -0.140027 3.797301 13.138127 -0.528542 3.337277 3.655340 0.130430 -0.027820 -0.091920 18.802627 -12.116523 3.520602 -4.600956 3.250533 -24.036073 7.139139 -3.453020 7.719045 0.357597 -2.983888 3.540394 0.206990 0.667970 0.192260 -4.991514 3.021479 -6.890571 15.527756 -0.705047 4.994544 -6.043844 -0.172077 -1.646724 6.006220 2.339135 -5.053279 6.389530 -5.223978 20.475747 -6.660020 -4.446300 4.525790 -7.142958 16.666908 -3.350965 -47.895797 6.285493 -5.687597 67.601358 -50.865918 -23.742121 -4.276905 2.926229 -0.186390 0.595420 -0.486830 0.306360 -6.278423 -13.204441 5.361093 41.248784 16.694098 3.105497 -93.266388 44.506048 -48.526413 1.914385 -1.816895 -0.252100 0.149840 -0.005940 0.048330 
-0.608620 16.244790 -1.198730 -4.352939 -26.399326 8.276690 -14.487568 12.481444 2.276972 8.829074 -1.712399 -14.745851 -0.247781 3.815179 13.040367 -0.521198 3.349693 3.654351 0.132250 -0.024340 -0.101440 18.787865 -12.076701 3.512005 -4.641438 3.227475 -23.893314 7.102732 -3.406210 7.484392 0.361180 -2.986242 3.541610 0.210640 0.677790 0.194460 -4.951378 2.899010 -6.908394 15.607350 -0.796602 4.993059 -6.466247 -0.147499 -1.477852 6.323051 2.142128 -5.147136 6.038332 -5.420570 20.461159 -6.576020 -4.845110 4.719490 -7.090054 16.579204 -3.364053 -47.693516 6.202209 -5.600543 68.199136 -50.847866 -24.163563 -4.271971 2.929192 -0.199650 0.600140 -0.495550 0.312470 -6.951495 -12.940485 5.516099 38.484253 15.875462 2.641929 -90.757860 46.246967 -47.158006 1.895056 -1.773707 -0.247600 0.149540 -0.005490 0.057530 
-0.599840 16.245010 -1.201460 -4.321622 -26.317197 8.230967 -14.504388 12.504883 2.287898 8.861783 -1.706367 -14.753677 -0.400086 3.844835 12.924811 -0.519328 3.367649 3.651904 0.129450 -0.025690 -0.114760 18.772879 -12.035086 3.502280 -4.707592 3.210514 -23.782954 7.078133 -3.371959 7.305531 0.366149 -2.988324 3.544031 0.213510 0.690110 0.193390 -4.911650 2.771692 -6.927513 15.688903 -0.888993 5.003468 -6.967581 -0.129032 -1.259265 6.646216 1.957407 -5.255032 5.702329 -5.610971 20.455509 -6.457330 -5.246190 4.853660 -6.990598 16.455890 -3.368027 -47.488364 6.115754 -5.528188 68.740761 -50.782039 -24.550873 -4.267830 2.925336 -0.208440 0.604960 -0.505790 0.316800 -7.676136 -12.649013 5.694130 35.949433 14.918543 2.132417 -87.947917 48.403296 -45.825482 1.858663 -1.709479 -0.248630 0.154640 -0.000390 0.064750 
-0.590830 16.245640 -1.204500 -4.326634 -26.204623 8.181338 -14.520129 12.532639 2.300081 8.923847 -1.695595 -14.769506 -0.543987 3.875552 12.807234 -0.515033 3.385300 3.649306 0.121830 -0.032320 -0.132010 18.757950 -11.995061 3.492349 -4.725899 3.195795 -23.652299 7.022709 -3.340560 7.165521 0.372445 -2.987805 3.549096 0.211630 0.703060 0.191340 -4.872446 2.639100 -6.951256 15.812978 -0.978864 5.043786 -7.499501 -0.103957 -1.061733 6.970029 1.787194 -5.381537 5.381722 -5.839187 20.510276 -6.319770 -5.687730 5.039220 -6.882583 16.297302 -3.362613 -47.300376 5.982731 -5.434432 69.300120 -50.640663 -24.902746 -4.263242 2.920990 -0.216950 0.609030 -0.516830 0.319780 -8.418156 -12.315192 5.876156 33.512831 13.798263 1.548436 -84.704643 50.953633 -44.345237 1.807264 -1.629437 -0.249550 0.159570 0.007510 0.072670 
-0.581410 16.246140 -1.207800 -4.357034 -26.077984 8.143140 -14.533198 12.555915 2.310330 8.993326 -1.684555 -14.789134 -0.671538 3.898694 12.678715 -0.509369 3.398054 3.647374 0.118740 -0.034670 -0.146940 18.746135 -11.957096 3.483967 -4.744646 3.188711 -23.533406 7.007910 -3.317614 7.046360 0.377343 -2.990423 3.552986 0.211360 0.713300 0.190450 -4.843165 2.518879 -6.973464 16.014872 -1.065436 5.059604 -8.109808 -0.086624 -0.806207 7.294167 1.629962 -5.507925 5.084705 -6.081450 20.537122 -6.136550 -6.147660 5.199580 -6.818548 16.022487 -3.312248 -47.038484 5.833034 -5.343925 69.958910 -50.360675 -25.251669 -4.257821 2.923677 -0.226410 0.611890 -0.526980 0.323960 -9.111801 -11.895596 6.016874 31.187968 12.570422 0.870140 -80.855963 53.872012 -42.607245 1.737855 -1.547149 -0.247310 0.161450 0.012540 0.080740 
